<svg width="1920" height="1" viewBox="0 0 1920 1" fill="none" xmlns="http://www.w3.org/2000/svg">
<g clip-path="url(#clip0)">
<path d="M1920 0H0V1H1920V0Z" fill="#D0F1E4"/>
<path d="M178.926 0.812278C178.959 0.811601 178.984 0.810926 179.001 0.810252C179.008 0.80996 179.028 0.809662 179.033 0.809374C179.033 0.809197 179.02 0.80903 179.02 0.808861C179.045 0.806775 179.005 0.80472 178.898 0.802697C178.89 0.802569 178.898 0.802434 178.888 0.802306C178.878 0.802113 178.848 0.801934 178.836 0.801744C178.713 0.799815 178.536 0.797907 178.298 0.796039C178.29 0.795984 178.29 0.795924 178.283 0.795869C178.263 0.795728 178.231 0.795595 178.213 0.795454C177.97 0.793689 177.677 0.791951 177.333 0.790243C177.306 0.790115 177.29 0.78997 177.265 0.789839C177.253 0.789784 177.235 0.789733 177.225 0.789679C176.865 0.787963 176.443 0.786284 175.98 0.78463C175.933 0.784457 175.9 0.784278 175.85 0.784107C175.81 0.783962 175.755 0.783828 175.712 0.783686C175.235 0.782063 174.71 0.780473 174.139 0.778917C174.099 0.778815 174.071 0.778702 174.034 0.778599C173.759 0.777869 173.474 0.777142 173.179 0.77642L164.572 0.755524C164.91 0.756342 165.22 0.757175 165.53 0.758008C166.105 0.759569 166.63 0.761161 167.105 0.762784C167.195 0.763095 167.282 0.76341 167.37 0.76372C167.833 0.765374 168.255 0.767053 168.617 0.768775C168.654 0.768961 168.685 0.769151 168.717 0.769339C169.064 0.771048 169.359 0.772787 169.6 0.774554C169.628 0.774747 169.66 0.774939 169.685 0.775129C169.928 0.777001 170.097 0.778911 170.223 0.78084C170.243 0.781158 170.265 0.781472 170.283 0.781789C170.393 0.783812 170.43 0.785872 170.408 0.787956C170.403 0.788417 170.398 0.788879 170.385 0.78934C170.37 0.790017 170.343 0.790699 170.312 0.791379C170.282 0.792004 170.252 0.792629 170.212 0.793261C170.169 0.793944 170.112 0.794633 170.057 0.795325C170.007 0.795931 169.957 0.796536 169.889 0.797145C169.794 0.798094 169.679 0.799049 169.557 0.800008C169.492 0.800521 169.432 0.801034 169.357 0.801547C169.19 0.802724 168.997 0.80391 168.789 0.805098C168.736 0.805399 168.694 0.805698 168.639 0.805995C168.477 0.806893 168.284 0.807797 168.097 0.808701C167.997 0.809188 167.912 0.809669 167.804 0.810156C167.499 0.81155 167.165 0.812953 166.804 0.814365C166.414 0.815887 165.996 0.817402 165.549 0.81891C165.492 0.819106 165.426 0.819294 165.369 0.819487C164.902 0.821041 164.406 0.822587 163.881 0.824125C163.699 0.824663 163.503 0.825202 163.313 0.825744C162.876 0.826975 162.422 0.828199 161.951 0.829417C161.746 0.829953 161.541 0.830492 161.326 0.831024C160.726 0.832511 160.104 0.833989 159.461 0.83546C159.371 0.835665 159.289 0.835874 159.196 0.836079C158.453 0.837745 157.671 0.839397 156.861 0.841038C156.628 0.841512 156.383 0.84198 156.146 0.842448C155.541 0.843645 154.921 0.844832 154.288 0.84601C154.003 0.846535 153.715 0.847065 153.425 0.84759C152.735 0.848831 152.027 0.850063 151.3 0.851289C151.08 0.851661 150.87 0.852033 150.645 0.852404C149.7 0.853972 148.725 0.855525 147.722 0.857062C147.482 0.857431 147.232 0.857793 146.987 0.858158C146.202 0.859341 145.402 0.860514 144.587 0.861678C144.269 0.86213 143.949 0.862575 143.629 0.863021C142.396 0.864736 141.141 0.866435 139.841 0.868102L139.794 0.868166C138.479 0.869849 137.121 0.871499 135.744 0.873125C135.464 0.873456 135.187 0.873783 134.906 0.874106C132.743 0.876622 130.51 0.879069 128.206 0.881445C128.061 0.881597 127.919 0.881751 127.771 0.881901C125.736 0.883984 123.65 0.886006 121.513 0.887965C121.346 0.888119 121.18 0.888279 121.013 0.888433C119.138 0.890142 117.22 0.891795 115.278 0.893407C114.978 0.893654 114.685 0.893904 114.385 0.894148C112.61 0.895601 110.807 0.897011 108.977 0.898379C108.622 0.898645 108.264 0.898904 107.907 0.899167C106.097 0.900494 104.269 0.901793 102.417 0.903033C102.317 0.903099 102.217 0.903161 102.124 0.903225C100.381 0.904382 98.6213 0.905497 96.8439 0.906569C96.4689 0.906797 96.0939 0.907028 95.7189 0.907252C93.9189 0.908323 92.104 0.909348 90.274 0.910329C89.936 0.910508 89.597 0.910681 89.259 0.910858C87.5383 0.911765 85.805 0.912632 84.059 0.913458C83.804 0.913578 83.554 0.913706 83.299 0.913824C81.3656 0.914725 79.4173 0.91557 77.454 0.91636C77.024 0.916536 76.591 0.91671 76.162 0.916879C74.352 0.917594 72.537 0.91828 70.712 0.918902C69.662 0.919258 68.604 0.919543 67.549 0.91987C65.986 0.920354 64.4209 0.920838 62.8489 0.921252C60.9089 0.921765 58.966 0.922233 57.019 0.922634C56.646 0.922711 56.276 0.922775 55.904 0.922849C54.204 0.92318 52.511 0.923452 50.816 0.923699C50.168 0.923789 49.523 0.923892 48.878 0.923972C46.74 0.924239 44.603 0.924457 42.468 0.924579C41.35 0.924643 40.268 0.924633 39.168 0.92466C38.21 0.924679 37.235 0.924736 36.29 0.924728C35.225 0.924715 34.19 0.924638 33.145 0.924586C32.227 0.924544 31.29 0.924535 30.387 0.924458C29.342 0.924375 28.3319 0.924228 27.3069 0.924106C26.4389 0.923999 25.552 0.923933 24.699 0.923801C23.674 0.923644 22.687 0.923416 21.684 0.923226C20.869 0.923066 20.0309 0.92294 19.2289 0.922754C18.2459 0.92253 17.3039 0.922242 16.3439 0.921979C15.5609 0.921761 14.756 0.921578 13.989 0.921338C13.059 0.921049 12.171 0.920697 11.264 0.920372C10.506 0.920099 9.72896 0.91986 8.98596 0.919561C8.06596 0.919189 7.18596 0.918762 6.29596 0.918356C5.61096 0.918044 4.90295 0.917766 4.23395 0.917433C3.34395 0.91699 2.50099 0.916493 1.64099 0.916012C1.00599 0.91566 0.347966 0.915335 -0.272034 0.914963C-1.08203 0.914476 -1.85001 0.913931 -2.63501 0.913408C-3.25801 0.912992 -3.90506 0.912603 -4.51306 0.912167C-5.27606 0.911619 -5.99303 0.911013 -6.72803 0.910433C-7.31103 0.909974 -7.91602 0.909535 -8.48102 0.909057C-9.23602 0.908416 -9.93901 0.90772 -10.661 0.907044C-11.161 0.906576 -11.686 0.906134 -12.171 0.905647C-12.891 0.904922 -13.561 0.904147 -14.246 0.903386C-14.683 0.902902 -15.146 0.90244 -15.574 0.90194C-16.216 0.90118 -16.8071 0.900372 -17.4141 0.899581C-17.8311 0.899036 -18.279 0.898513 -18.681 0.897953C-19.321 0.897056 -19.904 0.896122 -20.501 0.895193C-20.824 0.894689 -21.174 0.894212 -21.486 0.893699C-22.144 0.89261 -22.7411 0.891475 -23.3411 0.890336C-23.5411 0.889952 -23.778 0.88958 -23.976 0.889183C-24.756 0.887635 -25.4804 0.886048 -26.149 0.884422L-17.541 0.90532C-16.871 0.906948 -16.1467 0.908535 -15.368 0.91008C-15.168 0.910478 -14.938 0.910849 -14.733 0.911234C-14.133 0.912369 -13.5331 0.913507 -12.8751 0.914597C-12.5651 0.91511 -12.215 0.915588 -11.89 0.91609C-11.295 0.91702 -10.712 0.91796 -10.072 0.918851C-9.67202 0.919412 -9.22206 0.919934 -8.80206 0.920479C-8.19406 0.921271 -7.60205 0.922079 -6.96405 0.922838C-6.51905 0.923361 -6.03404 0.923842 -5.57404 0.924351C-4.90904 0.925085 -4.26104 0.925838 -3.56104 0.92654C-3.05304 0.927053 -2.50101 0.927515 -1.97601 0.928008C-1.27601 0.928662 -0.599033 0.929333 0.128967 0.929954C0.693967 0.930435 1.30097 0.930869 1.88397 0.93133C2.61897 0.931913 3.33394 0.932516 4.09894 0.933065C4.69894 0.933501 5.35199 0.933889 5.97699 0.934302C6.75899 0.934825 7.52697 0.93537 8.33997 0.93586C8.98997 0.936251 9.68298 0.93659 10.35 0.936962C11.178 0.937421 11.988 0.937902 12.84 0.938325C13.557 0.938681 14.313 0.938983 15.048 0.939316C15.895 0.939701 16.7259 0.940104 17.5959 0.940454C18.3509 0.940756 19.1439 0.941003 19.9189 0.941281C20.8089 0.941602 21.6839 0.941948 22.5989 0.942234C23.3989 0.94249 24.239 0.942676 25.059 0.942901C25.984 0.943157 26.892 0.943433 27.837 0.943651C28.695 0.943847 29.59 0.943984 30.467 0.944154C31.412 0.944338 32.3399 0.944545 33.3069 0.944693C34.1889 0.944828 35.107 0.944904 36.007 0.945011C37.002 0.945126 37.9819 0.945274 38.9969 0.945354C39.9239 0.945428 40.887 0.945442 41.83 0.945483C42.852 0.945531 43.8579 0.945611 44.8979 0.945617C45.8879 0.945628 46.908 0.945572 47.916 0.945549C48.924 0.945526 49.916 0.945536 50.939 0.945479L51.077 0.94547C53.212 0.945342 55.35 0.94513 57.49 0.944867C58.135 0.944788 58.78 0.944684 59.425 0.944592C60.258 0.944474 61.092 0.94438 61.925 0.944239C62.79 0.944092 63.6499 0.943912 64.5129 0.943742C64.8859 0.943671 65.258 0.943607 65.628 0.94353C67.318 0.94318 69.0079 0.942806 70.6929 0.942376C70.9479 0.942308 71.2029 0.942219 71.4579 0.942152C73.0309 0.941735 74.596 0.941254 76.158 0.940767C76.898 0.940539 77.6459 0.94036 78.3829 0.940113C78.6959 0.940011 79.0079 0.939906 79.3179 0.939799C81.1429 0.939178 82.9579 0.938492 84.7679 0.93778C84.9929 0.93769 85.2179 0.93762 85.4429 0.937524C85.6499 0.93744 85.8529 0.937338 86.0599 0.937254C88.0199 0.936456 89.97 0.93562 91.905 0.934719L92.115 0.934625C92.3 0.934539 92.48 0.934439 92.665 0.934349C94.4103 0.933525 96.1437 0.93266 97.865 0.931753C98.085 0.931638 98.313 0.931538 98.532 0.93142C98.65 0.931358 98.7619 0.931292 98.8799 0.931225C100.71 0.930241 102.525 0.929213 104.325 0.928142C104.477 0.928052 104.632 0.927975 104.785 0.927885C105.01 0.927751 105.228 0.927599 105.452 0.927465C107.227 0.926388 108.99 0.925279 110.73 0.924119L110.96 0.923974L111.023 0.923929C112.878 0.922688 114.703 0.92139 116.513 0.920063C116.713 0.919912 116.928 0.919778 117.131 0.919628C117.283 0.919512 117.431 0.919386 117.584 0.919271C119.411 0.917904 121.215 0.916493 122.994 0.91504C123.116 0.914938 123.244 0.914848 123.367 0.914748C123.544 0.914603 123.71 0.914443 123.885 0.914299C125.83 0.912687 127.742 0.911028 129.62 0.909321C129.677 0.90927 129.74 0.909222 129.797 0.90917C129.907 0.909067 130.01 0.908954 130.12 0.908856C132.253 0.90689 134.339 0.904869 136.378 0.902792C136.435 0.902734 136.495 0.902683 136.55 0.902625C136.64 0.902531 136.722 0.902429 136.812 0.902336C139.117 0.899961 141.351 0.897513 143.512 0.894993C143.62 0.894865 143.74 0.894752 143.847 0.894628C144.017 0.894429 144.175 0.89422 144.342 0.894019C145.722 0.892386 147.085 0.890739 148.4 0.889051L148.437 0.889002C149.737 0.887335 150.997 0.88563 152.237 0.883912C152.395 0.88369 152.567 0.883479 152.722 0.883261C152.877 0.883043 153.035 0.882795 153.194 0.882569C154.012 0.881405 154.814 0.880232 155.599 0.879049C155.841 0.87868 156.091 0.878319 156.331 0.877949C157.331 0.876411 158.306 0.874858 159.256 0.873292C159.479 0.872922 159.689 0.872548 159.909 0.872176C160.634 0.870951 161.343 0.869719 162.034 0.868478C162.324 0.867954 162.612 0.867426 162.897 0.866897C163.532 0.865721 164.151 0.864535 164.755 0.863339C164.995 0.862867 165.238 0.862397 165.473 0.861922C166.281 0.860284 167.063 0.85863 167.806 0.856967C167.898 0.856762 167.981 0.856553 168.071 0.856348C168.719 0.854877 169.341 0.853398 169.936 0.851912C170.151 0.851376 170.356 0.850842 170.564 0.850306C171.031 0.849084 171.484 0.847859 171.924 0.846629C172.114 0.84609 172.309 0.845552 172.494 0.84501C173.017 0.843471 173.512 0.841926 173.979 0.840375C174.029 0.840211 174.086 0.840054 174.134 0.839894L174.159 0.839798C174.604 0.838289 175.023 0.836774 175.414 0.835253C175.774 0.833839 176.107 0.832437 176.414 0.831044C176.522 0.830553 176.614 0.830072 176.714 0.829589C176.899 0.828685 177.091 0.827778 177.254 0.826884L177.279 0.826756C177.327 0.826493 177.359 0.826236 177.404 0.825974C177.612 0.824784 177.804 0.823602 177.972 0.822425C178.047 0.821912 178.104 0.821399 178.172 0.820887C178.294 0.819931 178.41 0.818979 178.504 0.818034C178.529 0.817797 178.567 0.817556 178.589 0.817319C178.624 0.816943 178.641 0.816578 178.672 0.816203C178.729 0.815513 178.784 0.814828 178.829 0.814145C178.867 0.813528 178.899 0.812905 178.926 0.812278Z" fill="url(#paint0_linear)"/>
<path d="M67.713 0.721035C76.9431 0.717854 86.4131 0.715952 95.96 0.715362C149.86 0.712272 181.588 0.756587 166.813 0.814356C154.622 0.86201 114.613 0.903935 70.724 0.918892C61.4947 0.922075 52.0254 0.923979 42.479 0.92457C-11.442 0.927666 -43.15 0.883346 -28.374 0.825576C-16.203 0.77792 23.817 0.73599 67.713 0.721035Z" fill="url(#paint1_linear)"/>
<g style="mix-blend-mode:overlay" opacity="0.69">
<path style="mix-blend-mode:overlay" opacity="0.69" d="M170.43 0.787964C170.43 0.787964 170.422 0.789098 170.405 0.791233C170.335 0.794318 170.121 0.797396 169.765 0.800448C169.204 0.805202 168.368 0.809896 167.265 0.814491C166.542 0.817113 165.774 0.819895 164.96 0.822837C164.047 0.825728 162.892 0.828696 161.79 0.831841C160.54 0.834877 159.157 0.837982 157.735 0.841207C156.117 0.844272 154.58 0.84757 152.747 0.850728C150.857 0.853824 149.077 0.857187 146.897 0.860236L143.684 0.864964C142.564 0.866502 141.366 0.867983 140.194 0.869519C135.32 0.875758 130.122 0.881567 124.635 0.886905C118.934 0.892353 112.964 0.89732 106.761 0.901777C100.536 0.90618 94.096 0.910065 87.4819 0.913409C81.0416 0.916529 74.4635 0.919161 67.7819 0.921291C55.8951 0.924955 43.6514 0.926348 31.447 0.925425C22.829 0.9248 14.3317 0.922533 6.23492 0.918697C3.98118 0.917613 1.77378 0.916376 -0.378052 0.914992L-2.63306 0.913463L-0.320068 0.914834C1.20993 0.915659 3.45495 0.916877 6.39795 0.91811C14.5289 0.921449 22.9858 0.923305 31.52 0.923623C43.5617 0.924097 55.5957 0.922401 67.27 0.918587C73.8399 0.916421 80.3048 0.913761 86.631 0.910622C93.1239 0.907259 99.443 0.90337 105.55 0.898977C111.684 0.894649 117.594 0.889817 123.242 0.884511C128.677 0.879309 133.831 0.873641 138.668 0.867546C139.831 0.866048 141.018 0.864606 142.133 0.8631C143.216 0.861561 144.289 0.860034 145.353 0.858519C147.561 0.855583 149.368 0.852333 151.288 0.84934C153.153 0.846288 154.721 0.84309 156.376 0.840118C157.834 0.836992 159.256 0.833964 160.544 0.831015C161.687 0.827977 162.844 0.825111 163.844 0.822297C164.744 0.819422 165.592 0.816691 166.389 0.814124C167.62 0.80963 168.59 0.805025 169.289 0.800347C169.737 0.79733 170.066 0.794285 170.272 0.791225C170.375 0.789096 170.43 0.787964 170.43 0.787964Z" fill="url(#paint2_linear)"/>
</g>
</g>
<defs>
<linearGradient id="paint0_linear" x1="8.73189" y1="0.942957" x2="8.73214" y2="0.63126" gradientUnits="userSpaceOnUse">
<stop stop-color="#AE8281"/>
<stop offset="0.114" stop-color="#B28584"/>
<stop offset="0.23" stop-color="#BE8F8E"/>
<stop offset="0.346" stop-color="#D2A19F"/>
<stop offset="0.453" stop-color="#ECB7B5"/>
<stop offset="0.586" stop-color="#FDD1CC"/>
<stop offset="0.673" stop-color="#FDD1CC"/>
<stop offset="0.688" stop-color="#FDD1CC"/>
<stop offset="0.742" stop-color="#ECB7B5"/>
<stop offset="0.823" stop-color="#F2C2BA"/>
<stop offset="0.962" stop-color="#CF918F"/>
<stop offset="1" stop-color="#CF918F"/>
</linearGradient>
<linearGradient id="paint1_linear" x1="-32.0007" y1="0.819966" x2="170.438" y2="0.819966" gradientUnits="userSpaceOnUse">
<stop stop-color="#ECB7B5"/>
<stop offset="0.742" stop-color="#FDD1CC"/>
</linearGradient>
<linearGradient id="paint2_linear" x1="-3.15225" y1="0.856833" x2="171.641" y2="0.856833" gradientUnits="userSpaceOnUse">
<stop stop-color="white" stop-opacity="0.102"/>
<stop offset="0.29" stop-color="white" stop-opacity="0.675"/>
<stop offset="0.462" stop-color="white"/>
<stop offset="0.507" stop-color="white" stop-opacity="0.957"/>
<stop offset="0.586" stop-color="white" stop-opacity="0.843"/>
<stop offset="0.689" stop-color="white" stop-opacity="0.659"/>
<stop offset="0.812" stop-color="white" stop-opacity="0.404"/>
<stop offset="0.951" stop-color="white" stop-opacity="0.082"/>
<stop offset="0.985" stop-color="white" stop-opacity="0"/>
</linearGradient>
<clipPath id="clip0">
<rect width="1920" height="1" fill="white"/>
</clipPath>
</defs>
</svg>
