<svg width="30" height="30" viewBox="0 0 30 30" fill="none" xmlns="http://www.w3.org/2000/svg">
<path d="M29.417 23.855L26.091 21.638L23.134 19.667C22.8588 19.484 22.5246 19.4118 22.1984 19.4648C21.8722 19.5178 21.5781 19.6922 21.375 19.953L19.547 22.3C19.3573 22.5474 19.0849 22.7183 18.7797 22.7816C18.4744 22.8449 18.1565 22.7965 17.884 22.645C15.6455 21.4813 13.6316 19.9292 11.936 18.061C10.0702 16.3633 8.51844 14.3498 7.35203 12.113C7.20199 11.8406 7.1546 11.5234 7.21845 11.219C7.2823 10.9146 7.45316 10.6432 7.70003 10.454L10.052 8.625C10.3128 8.42195 10.4872 8.12784 10.5402 7.80162C10.5933 7.47541 10.521 7.1412 10.338 6.866L8.42403 4L6.14603 0.582999C5.95983 0.302598 5.67284 0.104629 5.34458 0.0301536C5.01633 -0.0443222 4.67201 0.0104104 4.38303 0.182999L1.75503 1.763C1.04609 2.18179 0.52519 2.85699 0.300029 3.649C-0.417971 6.268 -0.562971 12.049 8.70003 21.306C17.963 30.563 23.738 30.421 26.357 29.706C27.1496 29.4802 27.8249 28.9581 28.243 28.248L29.819 25.621C29.9923 25.3315 30.0473 24.9863 29.9724 24.6573C29.8975 24.3284 29.6986 24.0409 29.417 23.855V23.855Z" fill="#32AE7F"/>
<path d="M15.776 5.12097C18.3403 5.12388 20.7987 6.14383 22.612 7.95705C24.4252 9.77027 25.4451 12.2287 25.448 14.793C25.448 14.9439 25.508 15.0886 25.6147 15.1953C25.7214 15.302 25.8661 15.362 26.017 15.362C26.1679 15.362 26.3127 15.302 26.4194 15.1953C26.5261 15.0886 26.586 14.9439 26.586 14.793C26.5829 11.927 25.4429 9.17924 23.4164 7.15266C21.3898 5.12608 18.642 3.98615 15.776 3.98297C15.6251 3.98297 15.4804 4.04292 15.3737 4.14963C15.267 4.25634 15.207 4.40106 15.207 4.55197C15.207 4.70288 15.267 4.84761 15.3737 4.95432C15.4804 5.06102 15.6251 5.12097 15.776 5.12097Z" fill="#32AE7F"/>
<path d="M16.594 7.64802C18.2534 7.64987 19.8444 8.3099 21.0178 9.48328C22.1912 10.6567 22.8512 12.2476 22.853 13.907C22.853 14.0579 22.913 14.2027 23.0197 14.3094C23.1264 14.4161 23.2711 14.476 23.422 14.476C23.5729 14.476 23.7177 14.4161 23.8244 14.3094C23.9311 14.2027 23.991 14.0579 23.991 13.907C23.9897 11.9448 23.2097 10.0634 21.8222 8.6759C20.4347 7.28841 18.5532 6.50834 16.591 6.50702C16.4401 6.50702 16.2954 6.56697 16.1887 6.67368C16.082 6.78038 16.022 6.92511 16.022 7.07602C16.022 7.22693 16.082 7.37165 16.1887 7.47836C16.2954 7.58507 16.4401 7.64502 16.591 7.64502L16.594 7.64802Z" fill="#32AE7F"/>
<path d="M16.856 10.808C17.6103 10.8088 18.3335 11.1088 18.8669 11.6421C19.4003 12.1755 19.7003 12.8987 19.701 13.653C19.701 13.7277 19.7158 13.8017 19.7444 13.8707C19.7729 13.9398 19.8149 14.0025 19.8677 14.0553C19.9205 14.1081 19.9833 14.1501 20.0523 14.1787C20.1213 14.2073 20.1953 14.222 20.2701 14.222C20.3448 14.222 20.4188 14.2073 20.4878 14.1787C20.5568 14.1501 20.6196 14.1081 20.6724 14.0553C20.7252 14.0025 20.7672 13.9398 20.7957 13.8707C20.8243 13.8017 20.8391 13.7277 20.8391 13.653C20.838 12.5969 20.418 11.5845 19.6713 10.8377C18.9246 10.091 17.9121 9.67104 16.856 9.66998C16.7051 9.66998 16.5604 9.72993 16.4537 9.83664C16.347 9.94335 16.287 10.0881 16.287 10.239C16.287 10.3899 16.347 10.5346 16.4537 10.6413C16.5604 10.748 16.7051 10.808 16.856 10.808V10.808Z" fill="#32AE7F"/>
</svg>
