<svg width="58" height="40" viewBox="0 0 58 40" fill="none" xmlns="http://www.w3.org/2000/svg">
<g clip-path="url(#clip0)">
<path d="M14.107 13.188H14.001C13.7016 13.1702 13.4017 13.2129 13.1191 13.3134C12.8364 13.4139 12.577 13.5703 12.356 13.7732C12.1351 13.9761 11.9573 14.2213 11.8331 14.4944C11.7089 14.7674 11.6409 15.0627 11.6332 15.3625C11.6255 15.6624 11.6782 15.9607 11.7882 16.2398C11.8981 16.5189 12.0631 16.773 12.2733 16.9869C12.4835 17.2009 12.7346 17.3704 13.0117 17.4854C13.2887 17.6003 13.5861 17.6583 13.886 17.656H14.011C15.201 17.6428 16.3817 17.8673 17.4837 18.3164C18.5858 18.7655 19.5871 19.4301 20.429 20.2712C21.2708 21.1124 21.9363 22.1131 22.3863 23.2148C22.8363 24.3165 23.0618 25.497 23.0496 26.687C23.0374 27.877 22.7878 29.0525 22.3153 30.1448C21.8428 31.237 21.1571 32.224 20.2982 33.0477C19.4393 33.8714 18.4245 34.5154 17.3135 34.9418C16.2025 35.3682 15.0175 35.5685 13.828 35.531C11.421 35.5649 9.09883 34.643 7.37063 32.9673C5.64242 31.2916 4.64929 28.9989 4.60903 26.592C4.54976 20.6615 6.10199 14.8262 9.10003 9.70899C10.3214 7.56608 11.848 5.61227 13.632 3.90898C13.857 3.71869 14.0412 3.48492 14.1737 3.22168C14.3061 2.95844 14.384 2.67116 14.4027 2.37708C14.4213 2.083 14.3804 1.78818 14.2824 1.5103C14.1843 1.23243 14.0311 0.977218 13.832 0.75999C13.4201 0.313866 12.8518 0.0440265 12.2457 0.00676316C11.6396 -0.0305002 11.0425 0.167685 10.579 0.559986C8.46436 2.52799 6.65451 4.79991 5.20903 7.30099C1.75732 13.1411 -0.0431207 19.8092 2.52039e-05 26.593C0.0605601 30.2031 1.55024 33.642 4.14243 36.1554C6.73461 38.6689 10.2177 40.0518 13.828 40.001C17.4383 40.0518 20.9214 38.6689 23.5136 36.1554C26.1058 33.642 27.5955 30.2031 27.656 26.593C27.6562 24.8428 27.3063 23.1103 26.6269 21.4973C25.9475 19.8844 24.9524 18.4236 23.7 17.201C21.1386 14.6777 17.7022 13.2401 14.107 13.188V13.188Z" fill="#32AE7F"/>
<path d="M53.25 17.201C50.6893 14.6793 47.2546 13.2426 43.661 13.19H43.555C43.2556 13.1722 42.9557 13.2149 42.673 13.3154C42.3904 13.416 42.131 13.5723 41.91 13.7752C41.6891 13.9781 41.5113 14.2234 41.3871 14.4964C41.2629 14.7695 41.195 15.0647 41.1872 15.3645C41.1795 15.6644 41.2322 15.9627 41.3422 16.2418C41.4521 16.5209 41.6171 16.775 41.8273 16.989C42.0375 17.203 42.2886 17.3725 42.5657 17.4874C42.8427 17.6023 43.1401 17.6604 43.44 17.658H43.565C45.3124 17.747 46.9954 18.3465 48.4055 19.3823C49.8156 20.4181 50.891 21.8447 51.4985 23.4855C52.106 25.1264 52.219 26.9093 51.8234 28.6137C51.4279 30.318 50.5412 31.869 49.2731 33.0745C48.005 34.28 46.4112 35.0871 44.689 35.396C42.9668 35.7048 41.1918 35.5018 39.5838 34.8121C37.9759 34.1223 36.6055 32.9762 35.6423 31.5155C34.6792 30.0548 34.1655 28.3437 34.165 26.594C34.1036 20.6634 35.6538 14.8274 38.65 9.70901C39.8714 7.56609 41.398 5.61228 43.182 3.90901C43.4071 3.71879 43.5915 3.48505 43.724 3.2218C43.8565 2.95856 43.9344 2.67125 43.9531 2.37713C43.9718 2.08301 43.9308 1.78815 43.8327 1.51026C43.7345 1.23236 43.5813 0.977174 43.382 0.760011C42.9702 0.313665 42.4019 0.0436629 41.7957 0.00639498C41.1896 -0.0308729 40.5924 0.16747 40.129 0.560007C38.0158 2.5283 36.2073 4.8002 34.763 7.30101C31.3099 13.1407 29.5081 19.8089 29.55 26.593C29.6643 30.1843 31.1713 33.5902 33.7521 36.0901C36.3328 38.5901 39.785 39.988 43.378 39.988C46.9711 39.988 50.4232 38.5901 53.004 36.0901C55.5848 33.5902 57.0918 30.1843 57.206 26.593C57.2062 24.8428 56.8563 23.1103 56.1769 21.4973C55.4975 19.8844 54.5024 18.4236 53.25 17.201V17.201Z" fill="#32AE7F"/>
</g>
<defs>
<clipPath id="clip0">
<rect width="57.207" height="40" fill="white"/>
</clipPath>
</defs>
</svg>
